{"title":"Bridesmaids 2011 PPVRIP IFLIX","uid":6585440,"size":1541380224,"categoryP":"video","categoryS":"movies","magnet":"?xt=urn:btih:44eb9063bcd7bc73c4cfa6e1fc2a4691fd1bf460&amp;dn=Bridesmaids+2011+PPVRIP+IFLIX&amp;tr=udp%3A%2F%2Ftracker.openbittorrent.com%3A80&amp;tr=udp%3A%2F%2Fopen.demonii.com%3A1337&amp;tr=udp%3A%2F%2Ftracker.coppersurfer.tk%3A6969&amp;tr=udp%3A%2F%2Fexodus.desync.com%3A6969","seeders":3,"leechers":0,"uploader":"IwannaFan2","files":7,"time":1312585966,"description":"Bridesmaids 2011 PPVRIP IFLIX &lt;a href=&quot;\nhttp://www.imdb.com/title/tt1478338/&quot; rel=&quot;nofollow&quot; target=&quot;_NEW&quot;&gt;\nhttp://www.imdb.com/title/tt1478338/&lt;/a&gt;\n\n[IMG]http://img833.imageshack.us/img833/7123/bridesposter.jpg[/IMG]\n[IMG]http://img28.imageshack.us/img28/277/63689406.png[/IMG]\n[IMG]http://img171.imageshack.us/img171/9048/70620903.png[/IMG]\n[IMG]http://img846.imageshack.us/img846/9594/20203099.png[/IMG]\n\nLanguage                         : English\n\nFormat                           : AVI\nFormat/Info                      : Audio Video Interleave\nFile size                        : 1.43 GiB\nDuration                         : 2h 4mn\nOverall bit rate                 : 1 640 Kbps\n\nVideo\nID                               : 0\nFormat                           : MPEG-4 Visual\nFormat settings, BVOP            : Yes\nFormat settings, QPel            : No\nFormat settings, GMC             : No warppoints\nFormat settings, Matrix          : Default (H.263)\nCodec ID                         : DX50\nCodec ID/Hint                    : DivX 5\nDuration                         : 2h 4mn\nBit rate                         : 1 500 Kbps\nWidth                            : 640 pixels\nHeight                           : 480 pixels\nDisplay aspect ratio             : 4:3\nFrame rate                       : 29.970 fps\nResolution                       : 24 bits\nColorimetry                      : 4:2:0\nScan type                        : Progressive\nBits/(Pixel*Frame)               : 0.163\nStream size                      : 1.31 GiB (91%)\nWriting library                  : DivX 2151n\n\nAudio\nID                               : 1\nFormat                           : MPEG Audio\nFormat version                   : Version 1\nFormat profile                   : Layer 3\nCodec ID                         : 55\nCodec ID/Hint                    : MP3\nDuration                         : 2h 4mn\nBit rate mode                    : Constant\nBit rate                         : 128 Kbps\nChannel(s)                       : 2 channels\nSampling rate                    : 48.0 KHz\nResolution                       : 16 bits\nStream size                      : 114 MiB (8%)\nAlignment                        : Aligned on interleaves\nInterleave, duration             : 33 ms (1.00 video frame)\n\nRelease notes...\n\nAnother quality release from IFLIX\n\nVideo source: Ours\nAudio source: Ours\n\nGreetings to all other groups out there. You all do awesome work and we greatly appreciate it.\nIFLIX :-)","torrent":{"xt":"urn:btih:44eb9063bcd7bc73c4cfa6e1fc2a4691fd1bf460","amp;dn":"Bridesmaids+2011+PPVRIP+IFLIX","amp;tr":["udp%3A%2F%2Ftracker.openbittorrent.com%3A80","udp%3A%2F%2Fopen.demonii.com%3A1337","udp%3A%2F%2Ftracker.coppersurfer.tk%3A6969","udp%3A%2F%2Fexodus.desync.com%3A6969"],"infoHash":"44eb9063bcd7bc73c4cfa6e1fc2a4691fd1bf460","infoHashBuffer":{"type":"Buffer","data":[68,235,144,99,188,215,188,115,196,207,166,225,252,42,70,145,253,27,244,96]},"announce":[],"urlList":[]}}